<mxfile host="Electron" agent="Mozilla/5.0 (Windows NT 10.0; Win64; x64) AppleWebKit/537.36 (KHTML, like Gecko) draw.io/26.0.4 Chrome/128.0.6613.186 Electron/32.2.5 Safari/537.36" version="26.0.4">
  <diagram name="ページ1" id="VSpRPKAWsjXY4FStWElW">
    <mxGraphModel dx="1434" dy="870" grid="1" gridSize="10" guides="1" tooltips="1" connect="1" arrows="1" fold="1" page="1" pageScale="1" pageWidth="980" pageHeight="690" math="1" shadow="0">
      <root>
        <mxCell id="0" />
        <mxCell id="1" parent="0" />
        <mxCell id="7-EIBCKcPtnI4tgBK4vi-1" style="rounded=0;orthogonalLoop=1;jettySize=auto;html=1;entryX=0.5;entryY=0;entryDx=0;entryDy=0;" edge="1" parent="1" source="QrbyXBJu_fXX1uhRx2Nx-1" target="QrbyXBJu_fXX1uhRx2Nx-3">
          <mxGeometry relative="1" as="geometry" />
        </mxCell>
        <mxCell id="QrbyXBJu_fXX1uhRx2Nx-1" value="Input Features(batchsize, i_dim)" style="rounded=0;whiteSpace=wrap;fillColor=#f5f5f5;fontColor=#333333;strokeColor=#666666;fontFamily=Times New Roman;" parent="1" vertex="1">
          <mxGeometry x="80" y="40" width="240" height="40" as="geometry" />
        </mxCell>
        <mxCell id="7-EIBCKcPtnI4tgBK4vi-2" style="rounded=0;orthogonalLoop=1;jettySize=auto;html=1;" edge="1" parent="1" source="QrbyXBJu_fXX1uhRx2Nx-3">
          <mxGeometry relative="1" as="geometry">
            <mxPoint x="200" y="200" as="targetPoint" />
          </mxGeometry>
        </mxCell>
        <mxCell id="QrbyXBJu_fXX1uhRx2Nx-3" value="Dense + ActivationFn(i_dim → ..)" style="rounded=1;whiteSpace=wrap;fillColor=#e1d5e7;strokeColor=#9673a6;fontFamily=Times New Roman;" parent="1" vertex="1">
          <mxGeometry x="80" y="120" width="240" height="40" as="geometry" />
        </mxCell>
        <mxCell id="7-EIBCKcPtnI4tgBK4vi-4" value="" style="endArrow=none;dashed=1;html=1;dashPattern=1 3;strokeWidth=2;rounded=0;" edge="1" parent="1">
          <mxGeometry width="50" height="50" relative="1" as="geometry">
            <mxPoint x="200" y="240" as="sourcePoint" />
            <mxPoint x="200" y="200" as="targetPoint" />
          </mxGeometry>
        </mxCell>
        <mxCell id="7-EIBCKcPtnI4tgBK4vi-7" style="rounded=0;orthogonalLoop=1;jettySize=auto;html=1;entryX=0.5;entryY=0;entryDx=0;entryDy=0;" edge="1" parent="1" source="7-EIBCKcPtnI4tgBK4vi-5" target="7-EIBCKcPtnI4tgBK4vi-6">
          <mxGeometry relative="1" as="geometry" />
        </mxCell>
        <mxCell id="7-EIBCKcPtnI4tgBK4vi-5" value="Dense + ReLU(.. → e_dim)" style="rounded=1;whiteSpace=wrap;fillColor=#dae8fc;strokeColor=#6c8ebf;fontFamily=Times New Roman;" vertex="1" parent="1">
          <mxGeometry x="80" y="240" width="240" height="40" as="geometry" />
        </mxCell>
        <mxCell id="7-EIBCKcPtnI4tgBK4vi-13" style="edgeStyle=none;shape=connector;rounded=0;orthogonalLoop=1;jettySize=auto;html=1;entryX=0.5;entryY=0;entryDx=0;entryDy=0;strokeColor=default;align=center;verticalAlign=middle;fontFamily=Helvetica;fontSize=11;fontColor=default;labelBackgroundColor=default;endArrow=classic;" edge="1" parent="1" source="7-EIBCKcPtnI4tgBK4vi-6" target="7-EIBCKcPtnI4tgBK4vi-12">
          <mxGeometry relative="1" as="geometry">
            <Array as="points">
              <mxPoint x="760" y="340" />
            </Array>
          </mxGeometry>
        </mxCell>
        <mxCell id="7-EIBCKcPtnI4tgBK4vi-22" style="edgeStyle=none;shape=connector;rounded=0;orthogonalLoop=1;jettySize=auto;html=1;entryX=0.5;entryY=0;entryDx=0;entryDy=0;strokeColor=default;align=center;verticalAlign=middle;fontFamily=Times New Roman;fontSize=14;fontColor=default;fontStyle=1;labelBackgroundColor=default;endArrow=classic;" edge="1" parent="1" source="7-EIBCKcPtnI4tgBK4vi-6" target="7-EIBCKcPtnI4tgBK4vi-14">
          <mxGeometry relative="1" as="geometry">
            <Array as="points">
              <mxPoint x="480" y="340" />
            </Array>
          </mxGeometry>
        </mxCell>
        <mxCell id="7-EIBCKcPtnI4tgBK4vi-25" value="" style="edgeStyle=none;shape=connector;rounded=0;orthogonalLoop=1;jettySize=auto;html=1;strokeColor=default;align=center;verticalAlign=middle;fontFamily=Times New Roman;fontSize=14;fontColor=default;fontStyle=1;labelBackgroundColor=default;endArrow=classic;" edge="1" parent="1" source="7-EIBCKcPtnI4tgBK4vi-6" target="7-EIBCKcPtnI4tgBK4vi-23">
          <mxGeometry relative="1" as="geometry" />
        </mxCell>
        <mxCell id="7-EIBCKcPtnI4tgBK4vi-6" value="Embedded Features(batchsize, e_dim)" style="rounded=0;whiteSpace=wrap;fillColor=#f5f5f5;fontColor=#333333;strokeColor=#666666;fontFamily=Times New Roman;" vertex="1" parent="1">
          <mxGeometry x="80" y="320" width="240" height="40" as="geometry" />
        </mxCell>
        <mxCell id="7-EIBCKcPtnI4tgBK4vi-29" style="edgeStyle=none;shape=connector;rounded=0;orthogonalLoop=1;jettySize=auto;html=1;entryX=0.5;entryY=0;entryDx=0;entryDy=0;strokeColor=default;align=center;verticalAlign=middle;fontFamily=Times New Roman;fontSize=14;fontColor=default;fontStyle=1;labelBackgroundColor=default;endArrow=classic;" edge="1" parent="1" source="7-EIBCKcPtnI4tgBK4vi-11" target="7-EIBCKcPtnI4tgBK4vi-28">
          <mxGeometry relative="1" as="geometry" />
        </mxCell>
        <mxCell id="7-EIBCKcPtnI4tgBK4vi-11" value="\(\phi\)(batchsize, \(N\))" style="rounded=0;whiteSpace=wrap;fillColor=#f5f5f5;fontColor=#333333;strokeColor=#666666;fontFamily=Times New Roman;" vertex="1" parent="1">
          <mxGeometry x="640" y="480" width="240" height="40" as="geometry" />
        </mxCell>
        <mxCell id="7-EIBCKcPtnI4tgBK4vi-26" style="edgeStyle=none;shape=connector;rounded=0;orthogonalLoop=1;jettySize=auto;html=1;entryX=0.5;entryY=0;entryDx=0;entryDy=0;strokeColor=default;align=center;verticalAlign=middle;fontFamily=Times New Roman;fontSize=14;fontColor=default;fontStyle=1;labelBackgroundColor=default;endArrow=classic;" edge="1" parent="1" source="7-EIBCKcPtnI4tgBK4vi-12" target="7-EIBCKcPtnI4tgBK4vi-11">
          <mxGeometry relative="1" as="geometry" />
        </mxCell>
        <mxCell id="7-EIBCKcPtnI4tgBK4vi-12" value="Dense + Softmax(e_dim → \(N\))" style="rounded=1;whiteSpace=wrap;fillColor=#d5e8d4;strokeColor=#82b366;fontFamily=Times New Roman;" vertex="1" parent="1">
          <mxGeometry x="640" y="400" width="240" height="40" as="geometry" />
        </mxCell>
        <mxCell id="7-EIBCKcPtnI4tgBK4vi-35" style="edgeStyle=none;shape=connector;rounded=0;orthogonalLoop=1;jettySize=auto;html=1;strokeColor=default;align=center;verticalAlign=middle;fontFamily=Times New Roman;fontSize=14;fontColor=default;fontStyle=1;labelBackgroundColor=default;endArrow=classic;" edge="1" parent="1" source="7-EIBCKcPtnI4tgBK4vi-14">
          <mxGeometry relative="1" as="geometry">
            <mxPoint x="480" y="520" as="targetPoint" />
          </mxGeometry>
        </mxCell>
        <mxCell id="7-EIBCKcPtnI4tgBK4vi-14" value="Dense + ReLU(e_dim → 1)" style="rounded=1;whiteSpace=wrap;fillColor=#dae8fc;strokeColor=#6c8ebf;fontFamily=Times New Roman;" vertex="1" parent="1">
          <mxGeometry x="360" y="400" width="240" height="40" as="geometry" />
        </mxCell>
        <mxCell id="7-EIBCKcPtnI4tgBK4vi-15" value="論文では，行動数\(|A|\)\(\times\)分位点数\(N\)\(\times\)バッチサイズの形状の出力を目指しているが，JSPでは行動数分のNNを持つこともでき，\(|A| = 1\)として読みかえたNNを本来の\(|A|\)個分持つ形を説明する．" style="text;align=left;verticalAlign=top;whiteSpace=wrap;rounded=0;fontFamily=Times New Roman;fontSize=14;fontColor=default;labelBackgroundColor=default;" vertex="1" parent="1">
          <mxGeometry x="360" y="40" width="520" height="80" as="geometry" />
        </mxCell>
        <mxCell id="7-EIBCKcPtnI4tgBK4vi-18" value="Non-Crossing Quantile Regression NeuralNetwork" style="text;strokeColor=none;fillColor=none;fontSize=14;fontStyle=1;verticalAlign=middle;align=left;fontFamily=Times New Roman;fontColor=default;labelBackgroundColor=default;whiteSpace=wrap;" vertex="1" parent="1">
          <mxGeometry x="40" width="360" height="40" as="geometry" />
        </mxCell>
        <mxCell id="7-EIBCKcPtnI4tgBK4vi-21" value="$$N \times |A| \to N$$" style="rounded=0;whiteSpace=wrap;align=center;verticalAlign=middle;fontFamily=Times New Roman;fontSize=12;fontColor=default;fontStyle=1;labelBackgroundColor=default;fillColor=default;gradientColor=none;" vertex="1" parent="1">
          <mxGeometry x="770" y="360" width="120" height="40" as="geometry" />
        </mxCell>
        <mxCell id="7-EIBCKcPtnI4tgBK4vi-34" style="edgeStyle=none;shape=connector;rounded=0;orthogonalLoop=1;jettySize=auto;html=1;strokeColor=default;align=center;verticalAlign=middle;fontFamily=Times New Roman;fontSize=14;fontColor=default;fontStyle=1;labelBackgroundColor=default;endArrow=classic;" edge="1" parent="1" source="7-EIBCKcPtnI4tgBK4vi-23">
          <mxGeometry relative="1" as="geometry">
            <mxPoint x="200" y="520" as="targetPoint" />
          </mxGeometry>
        </mxCell>
        <mxCell id="7-EIBCKcPtnI4tgBK4vi-23" value="Dense(e_dim → 1)" style="rounded=1;whiteSpace=wrap;fillColor=#dae8fc;strokeColor=#6c8ebf;fontFamily=Times New Roman;" vertex="1" parent="1">
          <mxGeometry x="80" y="400" width="240" height="40" as="geometry" />
        </mxCell>
        <mxCell id="7-EIBCKcPtnI4tgBK4vi-31" style="edgeStyle=none;shape=connector;rounded=0;orthogonalLoop=1;jettySize=auto;html=1;entryX=0.5;entryY=0;entryDx=0;entryDy=0;strokeColor=default;align=center;verticalAlign=middle;fontFamily=Times New Roman;fontSize=14;fontColor=default;fontStyle=1;labelBackgroundColor=default;endArrow=classic;" edge="1" parent="1" source="7-EIBCKcPtnI4tgBK4vi-28" target="7-EIBCKcPtnI4tgBK4vi-30">
          <mxGeometry relative="1" as="geometry" />
        </mxCell>
        <mxCell id="7-EIBCKcPtnI4tgBK4vi-28" value="Cumulated Sum(累積和)(\(N \to N\))" style="rounded=1;whiteSpace=wrap;fillColor=#f8cecc;strokeColor=#b85450;fontFamily=Times New Roman;" vertex="1" parent="1">
          <mxGeometry x="640" y="560" width="240" height="40" as="geometry" />
        </mxCell>
        <mxCell id="7-EIBCKcPtnI4tgBK4vi-30" value="\(\psi\)(batchsize, \(N\))" style="rounded=0;whiteSpace=wrap;fillColor=#f5f5f5;fontColor=#333333;strokeColor=#666666;fontFamily=Times New Roman;" vertex="1" parent="1">
          <mxGeometry x="640" y="640" width="240" height="40" as="geometry" />
        </mxCell>
        <mxCell id="7-EIBCKcPtnI4tgBK4vi-32" value="$$|A| \to 1$$" style="rounded=0;whiteSpace=wrap;align=center;verticalAlign=middle;fontFamily=Times New Roman;fontSize=12;fontColor=default;fontStyle=1;labelBackgroundColor=default;fillColor=default;gradientColor=none;" vertex="1" parent="1">
          <mxGeometry x="490" y="440" width="120" height="40" as="geometry" />
        </mxCell>
        <mxCell id="7-EIBCKcPtnI4tgBK4vi-33" value="$$|A| \to 1$$" style="rounded=0;whiteSpace=wrap;align=center;verticalAlign=middle;fontFamily=Times New Roman;fontSize=12;fontColor=default;fontStyle=1;labelBackgroundColor=default;fillColor=default;gradientColor=none;" vertex="1" parent="1">
          <mxGeometry x="210" y="440" width="120" height="40" as="geometry" />
        </mxCell>
        <mxCell id="7-EIBCKcPtnI4tgBK4vi-36" value="\(\alpha\)(batchsize, 1)" style="rounded=0;whiteSpace=wrap;fillColor=#f5f5f5;fontColor=#333333;strokeColor=#666666;fontFamily=Times New Roman;" vertex="1" parent="1">
          <mxGeometry x="360" y="520" width="240" height="40" as="geometry" />
        </mxCell>
        <mxCell id="7-EIBCKcPtnI4tgBK4vi-37" value="\(\beta\)(batchsize, 1)" style="rounded=0;whiteSpace=wrap;fillColor=#f5f5f5;fontColor=#333333;strokeColor=#666666;fontFamily=Times New Roman;" vertex="1" parent="1">
          <mxGeometry x="80" y="520" width="240" height="40" as="geometry" />
        </mxCell>
        <mxCell id="7-EIBCKcPtnI4tgBK4vi-38" style="edgeStyle=none;shape=connector;rounded=0;orthogonalLoop=1;jettySize=auto;html=1;entryX=0.5;entryY=0;entryDx=0;entryDy=0;strokeColor=default;align=center;verticalAlign=middle;fontFamily=Times New Roman;fontSize=14;fontColor=default;fontStyle=1;labelBackgroundColor=default;endArrow=classic;" edge="1" parent="1" source="7-EIBCKcPtnI4tgBK4vi-39" target="7-EIBCKcPtnI4tgBK4vi-47">
          <mxGeometry relative="1" as="geometry" />
        </mxCell>
        <mxCell id="7-EIBCKcPtnI4tgBK4vi-39" value="\(\phi\)(batchsize, \(N\))" style="rounded=0;whiteSpace=wrap;fillColor=#f5f5f5;fontColor=#333333;strokeColor=#666666;fontFamily=Times New Roman;" vertex="1" parent="1">
          <mxGeometry x="640" y="800" width="240" height="40" as="geometry" />
        </mxCell>
        <mxCell id="7-EIBCKcPtnI4tgBK4vi-40" style="edgeStyle=none;shape=connector;rounded=0;orthogonalLoop=1;jettySize=auto;html=1;entryX=0.5;entryY=0;entryDx=0;entryDy=0;strokeColor=default;align=center;verticalAlign=middle;fontFamily=Times New Roman;fontSize=14;fontColor=default;fontStyle=1;labelBackgroundColor=default;endArrow=classic;" edge="1" parent="1" source="7-EIBCKcPtnI4tgBK4vi-41" target="7-EIBCKcPtnI4tgBK4vi-39">
          <mxGeometry relative="1" as="geometry" />
        </mxCell>
        <mxCell id="7-EIBCKcPtnI4tgBK4vi-41" value="Dense + Softmax(e_dim → \(N\))" style="rounded=1;whiteSpace=wrap;fillColor=#d5e8d4;strokeColor=#82b366;fontFamily=Times New Roman;" vertex="1" parent="1">
          <mxGeometry x="640" y="720" width="240" height="40" as="geometry" />
        </mxCell>
        <mxCell id="7-EIBCKcPtnI4tgBK4vi-42" style="edgeStyle=none;shape=connector;rounded=0;orthogonalLoop=1;jettySize=auto;html=1;strokeColor=default;align=center;verticalAlign=middle;fontFamily=Times New Roman;fontSize=14;fontColor=default;fontStyle=1;labelBackgroundColor=default;endArrow=classic;" edge="1" parent="1" source="7-EIBCKcPtnI4tgBK4vi-43">
          <mxGeometry relative="1" as="geometry">
            <mxPoint x="480" y="840" as="targetPoint" />
          </mxGeometry>
        </mxCell>
        <mxCell id="7-EIBCKcPtnI4tgBK4vi-43" value="Dense + ReLU(e_dim → 1)" style="rounded=1;whiteSpace=wrap;fillColor=#dae8fc;strokeColor=#6c8ebf;fontFamily=Times New Roman;" vertex="1" parent="1">
          <mxGeometry x="360" y="720" width="240" height="40" as="geometry" />
        </mxCell>
        <mxCell id="7-EIBCKcPtnI4tgBK4vi-44" style="edgeStyle=none;shape=connector;rounded=0;orthogonalLoop=1;jettySize=auto;html=1;strokeColor=default;align=center;verticalAlign=middle;fontFamily=Times New Roman;fontSize=14;fontColor=default;fontStyle=1;labelBackgroundColor=default;endArrow=classic;" edge="1" parent="1" source="7-EIBCKcPtnI4tgBK4vi-45">
          <mxGeometry relative="1" as="geometry">
            <mxPoint x="200" y="840" as="targetPoint" />
          </mxGeometry>
        </mxCell>
        <mxCell id="7-EIBCKcPtnI4tgBK4vi-45" value="Dense(e_dim → 1)" style="rounded=1;whiteSpace=wrap;fillColor=#dae8fc;strokeColor=#6c8ebf;fontFamily=Times New Roman;" vertex="1" parent="1">
          <mxGeometry x="80" y="720" width="240" height="40" as="geometry" />
        </mxCell>
        <mxCell id="7-EIBCKcPtnI4tgBK4vi-46" style="edgeStyle=none;shape=connector;rounded=0;orthogonalLoop=1;jettySize=auto;html=1;entryX=0.5;entryY=0;entryDx=0;entryDy=0;strokeColor=default;align=center;verticalAlign=middle;fontFamily=Times New Roman;fontSize=14;fontColor=default;fontStyle=1;labelBackgroundColor=default;endArrow=classic;" edge="1" parent="1" source="7-EIBCKcPtnI4tgBK4vi-47" target="7-EIBCKcPtnI4tgBK4vi-48">
          <mxGeometry relative="1" as="geometry" />
        </mxCell>
        <mxCell id="7-EIBCKcPtnI4tgBK4vi-47" value="Cumulated Sum(累積和)(\(N \to N\))" style="rounded=1;whiteSpace=wrap;fillColor=#f8cecc;strokeColor=#b85450;fontFamily=Times New Roman;" vertex="1" parent="1">
          <mxGeometry x="640" y="880" width="240" height="40" as="geometry" />
        </mxCell>
        <mxCell id="7-EIBCKcPtnI4tgBK4vi-55" style="edgeStyle=none;shape=connector;rounded=0;orthogonalLoop=1;jettySize=auto;html=1;entryX=1;entryY=0.5;entryDx=0;entryDy=0;strokeColor=default;align=center;verticalAlign=middle;fontFamily=Times New Roman;fontSize=14;fontColor=default;fontStyle=1;labelBackgroundColor=default;endArrow=classic;" edge="1" parent="1" source="7-EIBCKcPtnI4tgBK4vi-48" target="7-EIBCKcPtnI4tgBK4vi-53">
          <mxGeometry relative="1" as="geometry">
            <Array as="points">
              <mxPoint x="760" y="1060" />
            </Array>
          </mxGeometry>
        </mxCell>
        <mxCell id="7-EIBCKcPtnI4tgBK4vi-48" value="\(\psi\)(batchsize, \(N\))" style="rounded=0;whiteSpace=wrap;fillColor=#f5f5f5;fontColor=#333333;strokeColor=#666666;fontFamily=Times New Roman;" vertex="1" parent="1">
          <mxGeometry x="640" y="960" width="240" height="40" as="geometry" />
        </mxCell>
        <mxCell id="7-EIBCKcPtnI4tgBK4vi-54" style="edgeStyle=none;shape=connector;rounded=0;orthogonalLoop=1;jettySize=auto;html=1;entryX=0.5;entryY=0;entryDx=0;entryDy=0;strokeColor=default;align=center;verticalAlign=middle;fontFamily=Times New Roman;fontSize=14;fontColor=default;fontStyle=1;labelBackgroundColor=default;endArrow=classic;" edge="1" parent="1" source="7-EIBCKcPtnI4tgBK4vi-51" target="7-EIBCKcPtnI4tgBK4vi-53">
          <mxGeometry relative="1" as="geometry" />
        </mxCell>
        <mxCell id="7-EIBCKcPtnI4tgBK4vi-51" value="\(\alpha\)(batchsize, 1)" style="rounded=0;whiteSpace=wrap;fillColor=#f5f5f5;fontColor=#333333;strokeColor=#666666;fontFamily=Times New Roman;" vertex="1" parent="1">
          <mxGeometry x="360" y="840" width="240" height="40" as="geometry" />
        </mxCell>
        <mxCell id="7-EIBCKcPtnI4tgBK4vi-59" style="edgeStyle=none;shape=connector;rounded=0;orthogonalLoop=1;jettySize=auto;html=1;entryX=0;entryY=0.5;entryDx=0;entryDy=0;strokeColor=default;align=center;verticalAlign=middle;fontFamily=Times New Roman;fontSize=14;fontColor=default;fontStyle=1;labelBackgroundColor=default;endArrow=classic;" edge="1" parent="1" source="7-EIBCKcPtnI4tgBK4vi-52" target="7-EIBCKcPtnI4tgBK4vi-58">
          <mxGeometry relative="1" as="geometry">
            <Array as="points">
              <mxPoint x="200" y="1200" />
            </Array>
          </mxGeometry>
        </mxCell>
        <mxCell id="7-EIBCKcPtnI4tgBK4vi-52" value="\(\beta\)(batchsize, 1)" style="rounded=0;whiteSpace=wrap;fillColor=#f5f5f5;fontColor=#333333;strokeColor=#666666;fontFamily=Times New Roman;" vertex="1" parent="1">
          <mxGeometry x="80" y="840" width="240" height="40" as="geometry" />
        </mxCell>
        <mxCell id="7-EIBCKcPtnI4tgBK4vi-57" style="edgeStyle=none;shape=connector;rounded=0;orthogonalLoop=1;jettySize=auto;html=1;entryX=0.5;entryY=0;entryDx=0;entryDy=0;strokeColor=default;align=center;verticalAlign=middle;fontFamily=Times New Roman;fontSize=14;fontColor=default;fontStyle=1;labelBackgroundColor=default;endArrow=classic;" edge="1" parent="1" source="7-EIBCKcPtnI4tgBK4vi-53" target="7-EIBCKcPtnI4tgBK4vi-56">
          <mxGeometry relative="1" as="geometry" />
        </mxCell>
        <mxCell id="7-EIBCKcPtnI4tgBK4vi-53" value="\(\times\)" style="ellipse;whiteSpace=wrap;html=1;aspect=fixed;rounded=0;strokeColor=default;align=center;verticalAlign=middle;fontFamily=Times New Roman;fontSize=14;fontColor=default;fontStyle=1;labelBackgroundColor=default;fillColor=default;gradientColor=none;" vertex="1" parent="1">
          <mxGeometry x="460" y="1040" width="40" height="40" as="geometry" />
        </mxCell>
        <mxCell id="7-EIBCKcPtnI4tgBK4vi-60" style="edgeStyle=none;shape=connector;rounded=0;orthogonalLoop=1;jettySize=auto;html=1;entryX=1;entryY=0.5;entryDx=0;entryDy=0;strokeColor=default;align=center;verticalAlign=middle;fontFamily=Times New Roman;fontSize=14;fontColor=default;fontStyle=1;labelBackgroundColor=default;endArrow=classic;" edge="1" parent="1" source="7-EIBCKcPtnI4tgBK4vi-56" target="7-EIBCKcPtnI4tgBK4vi-58">
          <mxGeometry relative="1" as="geometry">
            <Array as="points">
              <mxPoint x="480" y="1200" />
            </Array>
          </mxGeometry>
        </mxCell>
        <mxCell id="7-EIBCKcPtnI4tgBK4vi-56" value="(batchsize, \(N\))" style="rounded=0;whiteSpace=wrap;fillColor=#f5f5f5;fontColor=#333333;strokeColor=#666666;fontFamily=Times New Roman;" vertex="1" parent="1">
          <mxGeometry x="360" y="1120" width="240" height="40" as="geometry" />
        </mxCell>
        <mxCell id="7-EIBCKcPtnI4tgBK4vi-62" value="" style="edgeStyle=none;shape=connector;rounded=0;orthogonalLoop=1;jettySize=auto;html=1;strokeColor=default;align=center;verticalAlign=middle;fontFamily=Times New Roman;fontSize=14;fontColor=default;fontStyle=1;labelBackgroundColor=default;endArrow=classic;" edge="1" parent="1" source="7-EIBCKcPtnI4tgBK4vi-58" target="7-EIBCKcPtnI4tgBK4vi-61">
          <mxGeometry relative="1" as="geometry" />
        </mxCell>
        <mxCell id="7-EIBCKcPtnI4tgBK4vi-58" value="\(+\)" style="ellipse;whiteSpace=wrap;html=1;aspect=fixed;rounded=0;strokeColor=default;align=center;verticalAlign=middle;fontFamily=Times New Roman;fontSize=14;fontColor=default;fontStyle=1;labelBackgroundColor=default;fillColor=default;gradientColor=none;" vertex="1" parent="1">
          <mxGeometry x="320" y="1180" width="40" height="40" as="geometry" />
        </mxCell>
        <mxCell id="7-EIBCKcPtnI4tgBK4vi-61" value="(batchsize, \(N\))" style="rounded=0;whiteSpace=wrap;fillColor=#f5f5f5;fontColor=#333333;strokeColor=#666666;fontFamily=Times New Roman;" vertex="1" parent="1">
          <mxGeometry x="220" y="1240" width="240" height="40" as="geometry" />
        </mxCell>
        <mxCell id="7-EIBCKcPtnI4tgBK4vi-63" value="$$N \times |A| \to N$$" style="rounded=0;whiteSpace=wrap;align=center;verticalAlign=middle;fontFamily=Times New Roman;fontSize=12;fontColor=default;fontStyle=1;labelBackgroundColor=default;fillColor=default;gradientColor=none;" vertex="1" parent="1">
          <mxGeometry x="350" y="1280" width="120" height="40" as="geometry" />
        </mxCell>
        <mxCell id="7-EIBCKcPtnI4tgBK4vi-64" value="画像入力の場合は，ここがConvolution層になる．" style="text;align=left;verticalAlign=top;whiteSpace=wrap;rounded=0;fontFamily=Times New Roman;fontSize=14;fontColor=default;labelBackgroundColor=default;" vertex="1" parent="1">
          <mxGeometry x="360" y="120" width="520" height="40" as="geometry" />
        </mxCell>
      </root>
    </mxGraphModel>
  </diagram>
</mxfile>
